<svg width="532" height="51" viewBox="0 0 532 51" fill="none" xmlns="http://www.w3.org/2000/svg">
<path d="M29.9776 1.74366C32.7048 2.77197 35.1638 4.42622 37.3546 6.70639C42.0491 11.4456 44.3963 17.4925 44.3963 24.8472C44.3963 32.2018 42.0491 38.2711 37.3546 43.055C35.1638 45.3352 32.7048 46.9894 29.9776 48.0177C27.1609 49.1802 24.2771 49.7614 21.3263 49.7614H2.34724C1.72131 49.7614 1.17362 49.5267 0.704171 49.0572C0.234724 48.5878 0 48.0401 0 47.4142V42.5856C0 41.9149 0.234724 41.3449 0.704171 40.8754C1.17362 40.406 1.72131 40.1713 2.34724 40.1713H21.1251C25.1042 40.1713 28.3345 38.7182 30.8159 35.8121C33.2972 32.906 34.5379 29.2622 34.5379 24.8807C34.5379 20.4992 33.2972 16.8554 30.8159 13.9493C28.3345 11.0432 25.1042 9.59013 21.1251 9.59013H2.34724C1.72131 9.59013 1.17362 9.35541 0.704171 8.88596C0.234724 8.41652 0 7.84647 0 7.17583V2.34723C0 1.72131 0.234724 1.17362 0.704171 0.704171C1.17362 0.234724 1.72131 0 2.34724 0H21.3263C24.2771 0 27.1609 0.58122 29.9776 1.74366ZM93.9162 40.1042C94.5869 40.1042 95.1458 40.3389 95.5928 40.8084C96.0399 41.2778 96.2635 41.8479 96.2635 42.5185V47.4142C96.2635 48.0401 96.0399 48.5878 95.5928 49.0572C95.1458 49.5267 94.5869 49.7614 93.9162 49.7614H60.7867C60.1608 49.7614 59.6131 49.5267 59.1436 49.0572C58.6742 48.5878 58.4395 48.0401 58.4395 47.4142V42.5185C58.4395 41.8479 58.6742 41.2778 59.1436 40.8084C59.6131 40.3389 60.1608 40.1042 60.7867 40.1042H93.9162ZM60.7867 29.7093C60.1608 29.7093 59.6131 29.4746 59.1436 29.0051C58.6742 28.5357 58.4395 27.988 58.4395 27.3621V22.3323C58.4395 21.7063 58.6742 21.1587 59.1436 20.6892C59.6131 20.2198 60.1608 19.985 60.7867 19.985H90.8984C91.569 19.985 92.1391 20.2198 92.6085 20.6892C93.078 21.1587 93.3127 21.7063 93.3127 22.3323V27.3621C93.3127 27.988 93.078 28.5357 92.6085 29.0051C92.1391 29.4746 91.569 29.7093 90.8984 29.7093H60.7867ZM93.9162 0C94.5869 0 95.1458 0.234724 95.5928 0.704171C96.0399 1.17362 96.2635 1.72131 96.2635 2.34723V7.2429C96.2635 7.91354 96.0399 8.48358 95.5928 8.95303C95.1458 9.42247 94.5869 9.6572 93.9162 9.6572H60.7867C60.1608 9.6572 59.6131 9.42247 59.1436 8.95303C58.6742 8.48358 58.4395 7.91354 58.4395 7.2429V2.34723C58.4395 1.72131 58.6742 1.17362 59.1436 0.704171C59.6131 0.234724 60.1608 0 60.7867 0H93.9162ZM152.155 1.07302C152.646 1.74366 152.736 2.48136 152.423 3.28613L134.047 48.6884C133.868 49.1355 133.578 49.4931 133.175 49.7614C132.773 50.0297 132.326 50.1638 131.834 50.1638H125.933C125.441 50.1638 124.994 50.0297 124.591 49.7614C124.189 49.4931 123.898 49.1355 123.719 48.6884L105.344 3.28613C104.986 2.52607 105.053 1.78837 105.545 1.07302C106.037 0.357675 106.685 0 107.49 0H129.889C130.515 0 131.063 0.234724 131.532 0.704171C132.002 1.17362 132.237 1.74366 132.237 2.4143V7.30996C132.237 7.9806 132.002 8.55064 131.532 9.02009C131.063 9.48954 130.515 9.72426 129.889 9.72426H118.623L128.883 35.5439L142.363 1.47541C142.542 1.02831 142.833 0.670638 143.235 0.402383C143.637 0.134127 144.085 0 144.576 0H150.21C150.612 0 150.992 0.100596 151.35 0.301788C151.707 0.50298 151.976 0.760058 152.155 1.07302ZM196.041 20.5215C196.712 20.5215 197.282 20.7563 197.751 21.2257C198.221 21.6952 198.455 22.2652 198.455 22.9358V27.8986C198.455 28.5245 198.221 29.0722 197.751 29.5416C197.282 30.0111 196.712 30.2458 196.041 30.2458H173.977V47.4142C173.977 48.0401 173.754 48.5878 173.306 49.0572C172.859 49.5267 172.301 49.7614 171.63 49.7614H166.533C165.907 49.7614 165.359 49.5267 164.89 49.0572C164.421 48.5878 164.186 48.0401 164.186 47.4142V22.9358C164.186 22.2652 164.421 21.6952 164.89 21.2257C165.359 20.7563 165.907 20.5215 166.533 20.5215H196.041ZM199.059 0C199.685 0 200.233 0.234724 200.702 0.704171C201.172 1.17362 201.406 1.72131 201.406 2.34723V7.2429C201.406 7.91354 201.172 8.48358 200.702 8.95303C200.233 9.42247 199.685 9.6572 199.059 9.6572H166.533C165.907 9.6572 165.359 9.42247 164.89 8.95303C164.421 8.48358 164.186 7.91354 164.186 7.2429V2.34723C164.186 1.72131 164.421 1.17362 164.89 0.704171C165.359 0.234724 165.907 0 166.533 0H199.059ZM258.504 46.4753C258.817 47.1906 258.739 47.9171 258.27 48.6548C257.8 49.3925 257.163 49.7614 256.358 49.7614H211.694C211.291 49.7614 210.911 49.6608 210.554 49.4596C210.196 49.2584 209.928 49.0013 209.749 48.6884C209.257 47.973 209.19 47.2353 209.548 46.4753L211.627 41.5796C211.806 41.1325 212.096 40.7748 212.499 40.5066C212.901 40.2383 213.326 40.1042 213.773 40.1042H245.025L234.026 13.8152L225.04 35.2756C224.861 35.7227 224.581 36.0692 224.201 36.3151C223.821 36.561 223.385 36.6839 222.893 36.6839H217.26C216.411 36.6839 215.74 36.3263 215.248 35.6109C215.069 35.298 214.958 34.9403 214.913 34.5379C214.868 34.1355 214.913 33.7555 215.047 33.3978L228.661 1.47541C228.84 1.02831 229.119 0.670638 229.499 0.402383C229.879 0.134127 230.315 0 230.807 0H237.245C237.737 0 238.173 0.134127 238.553 0.402383C238.933 0.670638 239.212 1.02831 239.391 1.47541L258.504 46.4753ZM302.19 30.5141L312.316 46.0058C312.808 46.8106 312.831 47.6154 312.384 48.4201C312.205 48.7778 311.925 49.0684 311.545 49.292C311.165 49.5155 310.774 49.6273 310.372 49.6273H304.269C303.866 49.6273 303.486 49.5267 303.129 49.3255C302.771 49.1243 302.503 48.8672 302.324 48.5542L292.13 32.3919H280.193V47.28C280.193 47.906 279.958 48.4537 279.489 48.9231C279.019 49.3925 278.472 49.6273 277.846 49.6273H272.749C272.123 49.6273 271.575 49.3925 271.106 48.9231C270.636 48.4537 270.402 47.906 270.402 47.28V25.216C270.402 24.5901 270.636 24.0424 271.106 23.573C271.575 23.1035 272.123 22.8688 272.749 22.8688H293.404C297.339 22.8688 299.954 21.751 301.251 19.5156C301.698 18.8002 301.922 17.7719 301.922 16.4306C301.922 14.3293 301.229 12.6751 299.843 11.4679C298.412 10.1714 296.355 9.52307 293.673 9.52307H272.749C272.123 9.52307 271.575 9.28835 271.106 8.8189C270.636 8.34945 270.402 7.80176 270.402 7.17583V2.34723C270.402 1.72131 270.636 1.17362 271.106 0.704171C271.575 0.234724 272.123 0 272.749 0H294.276C299.507 0 303.688 1.47541 306.817 4.42622C310.081 7.37703 311.713 11.3785 311.713 16.4306C311.713 19.6944 310.998 22.4776 309.567 24.7801C308.136 27.0826 306.057 28.8375 303.33 30.0446L302.19 30.5141ZM356.337 1.74366C359.064 2.77197 361.523 4.42622 363.714 6.70639C368.409 11.4456 370.756 17.4925 370.756 24.8472C370.756 32.2018 368.409 38.2711 363.714 43.055C361.523 45.3352 359.064 46.9894 356.337 48.0177C353.521 49.1802 350.637 49.7614 347.686 49.7614H328.707C328.081 49.7614 327.533 49.5267 327.064 49.0572C326.594 48.5878 326.36 48.0401 326.36 47.4142V42.5856C326.36 41.9149 326.594 41.3449 327.064 40.8754C327.533 40.406 328.081 40.1713 328.707 40.1713H347.485C351.464 40.1713 354.694 38.7182 357.175 35.8121C359.657 32.906 360.898 29.2622 360.898 24.8807C360.898 20.4992 359.657 16.8554 357.175 13.9493C354.694 11.0432 351.464 9.59013 347.485 9.59013H328.707C328.081 9.59013 327.533 9.35541 327.064 8.88596C326.594 8.41652 326.36 7.84647 326.36 7.17583V2.34723C326.36 1.72131 326.594 1.17362 327.064 0.704171C327.533 0.234724 328.081 0 328.707 0H347.686C350.637 0 353.521 0.58122 356.337 1.74366ZM420.276 40.1042C420.947 40.1042 421.505 40.3389 421.952 40.8084C422.4 41.2778 422.623 41.8479 422.623 42.5185V47.4142C422.623 48.0401 422.4 48.5878 421.952 49.0572C421.505 49.5267 420.947 49.7614 420.276 49.7614H387.146C386.52 49.7614 385.973 49.5267 385.503 49.0572C385.034 48.5878 384.799 48.0401 384.799 47.4142V42.5185C384.799 41.8479 385.034 41.2778 385.503 40.8084C385.973 40.3389 386.52 40.1042 387.146 40.1042H420.276ZM387.146 29.7093C386.52 29.7093 385.973 29.4746 385.503 29.0051C385.034 28.5357 384.799 27.988 384.799 27.3621V22.3323C384.799 21.7063 385.034 21.1587 385.503 20.6892C385.973 20.2198 386.52 19.985 387.146 19.985H417.258C417.929 19.985 418.499 20.2198 418.968 20.6892C419.438 21.1587 419.672 21.7063 419.672 22.3323V27.3621C419.672 27.988 419.438 28.5357 418.968 29.0051C418.499 29.4746 417.929 29.7093 417.258 29.7093H387.146ZM420.276 0C420.947 0 421.505 0.234724 421.952 0.704171C422.4 1.17362 422.623 1.72131 422.623 2.34723V7.2429C422.623 7.91354 422.4 8.48358 421.952 8.95303C421.505 9.42247 420.947 9.6572 420.276 9.6572H387.146C386.52 9.6572 385.973 9.42247 385.503 8.95303C385.034 8.48358 384.799 7.91354 384.799 7.2429V2.34723C384.799 1.72131 385.034 1.17362 385.503 0.704171C385.973 0.234724 386.52 0 387.146 0H420.276ZM472.143 40.1042C472.814 40.1042 473.373 40.3389 473.82 40.8084C474.267 41.2778 474.49 41.8479 474.49 42.5185V47.4142C474.49 48.0401 474.267 48.5878 473.82 49.0572C473.373 49.5267 472.814 49.7614 472.143 49.7614H439.014C438.388 49.7614 437.84 49.5267 437.37 49.0572C436.901 48.5878 436.666 48.0401 436.666 47.4142V42.5185C436.666 41.8479 436.901 41.2778 437.37 40.8084C437.84 40.3389 438.388 40.1042 439.014 40.1042H472.143ZM439.014 29.7093C438.388 29.7093 437.84 29.4746 437.37 29.0051C436.901 28.5357 436.666 27.988 436.666 27.3621V22.3323C436.666 21.7063 436.901 21.1587 437.37 20.6892C437.84 20.2198 438.388 19.985 439.014 19.985H469.125C469.796 19.985 470.366 20.2198 470.835 20.6892C471.305 21.1587 471.54 21.7063 471.54 22.3323V27.3621C471.54 27.988 471.305 28.5357 470.835 29.0051C470.366 29.4746 469.796 29.7093 469.125 29.7093H439.014ZM472.143 0C472.814 0 473.373 0.234724 473.82 0.704171C474.267 1.17362 474.49 1.72131 474.49 2.34723V7.2429C474.49 7.91354 474.267 8.48358 473.82 8.95303C473.373 9.42247 472.814 9.6572 472.143 9.6572H439.014C438.388 9.6572 437.84 9.42247 437.37 8.95303C436.901 8.48358 436.666 7.91354 436.666 7.2429V2.34723C436.666 1.72131 436.901 1.17362 437.37 0.704171C437.84 0.234724 438.388 0 439.014 0H472.143ZM529.644 0C530.27 0 530.817 0.234724 531.287 0.704171C531.756 1.17362 531.991 1.72131 531.991 2.34723V47.28C531.991 47.906 531.756 48.4537 531.287 48.9231C530.817 49.3925 530.27 49.6273 529.644 49.6273H523.742C522.937 49.6273 522.289 49.3143 521.797 48.6884L489.003 3.75558C488.735 3.3979 488.578 2.99552 488.534 2.54843C488.489 2.10134 488.567 1.6766 488.768 1.27421C488.969 0.871831 489.26 0.558865 489.64 0.335319C490.02 0.111773 490.434 0 490.881 0H496.782C497.14 0 497.498 0.0782418 497.855 0.234724C498.213 0.391207 498.481 0.62593 498.66 0.938895L522.2 32.9284V2.34723C522.2 1.72131 522.423 1.17362 522.87 0.704171C523.317 0.234724 523.876 0 524.547 0H529.644ZM495.978 32.526C496.604 32.526 497.151 32.7495 497.621 33.1966C498.09 33.6437 498.325 34.2026 498.325 34.8732V47.28C498.325 47.906 498.09 48.4537 497.621 48.9231C497.151 49.3925 496.604 49.6273 495.978 49.6273H490.881C490.255 49.6273 489.707 49.3925 489.238 48.9231C488.768 48.4537 488.534 47.906 488.534 47.28V34.8732C488.534 34.2026 488.768 33.6437 489.238 33.1966C489.707 32.7495 490.255 32.526 490.881 32.526H495.978Z" fill="#667085"/>
</svg>
